<svg id="Layer_5" enable-background="new 0 0 64 64" height="512" viewBox="0 0 64 64" width="512" xmlns="http://www.w3.org/2000/svg"><g><g><g><path d="m49 58v2c0 1.1-.9 2-2 2h-30c-1.1 0-2-.9-2-2v-2c0-1.1.9-2 2-2h5 20 5c1.1 0 2 .9 2 2z" fill="#969faa"/></g><g><path d="m58 50h-52c-2.209 0-4-1.791-4-4v-30c0-2.209 1.791-4 4-4h52c2.209 0 4 1.791 4 4v30c0 2.209-1.791 4-4 4z" fill="#ccd1d9"/></g><g><path d="m42 56h-20c1.87-1.25 3-3.35 3-5.61v-.39h14v.39c0 2.26 1.13 4.36 3 5.61z" fill="#aab2bd"/></g><g><path d="m58 42h-51c-.552 0-1-.448-1-1v-24c0-.552.448-1 1-1h50c.552 0 1 .448 1 1z" fill="#69d6f4"/></g><g><path d="m43.83 12c-.24-1.44-.73-2.79-1.44-4.01-2.07-3.58-5.95-5.99-10.39-5.99s-8.32 2.41-10.39 5.99c-.71 1.22-1.2 2.57-1.44 4.01-.11.65-.17 1.32-.17 2s.06 1.35.17 2c.38 2.29 1.42 4.35 2.9 6h5.21 7.44 5.21c1.48-1.65 2.52-3.71 2.9-6 .11-.65.17-1.32.17-2s-.06-1.35-.17-2z" fill="#4fc1e9"/></g><g><path d="m40.93 22h9.07c1.1 0 2 .9 2 2v11.83l-5-.83.49 2.95-.32.05h-33.17c-1.1 0-2-.9-2-2v-12c0-1.1.9-2 2-2h9.07 5.21 7.44z" fill="#ffeaa7"/></g><g><path d="m58 36.83 1 .17-3 3 3 3-4 4-3-3-3 3-.84-5.05-.67-4-.49-2.95 5 .83z" fill="#ff826e"/></g></g><g><path d="m23 32.917c-.001.084-.149.099-.164.013l-.686-4.108c-.175-1.056-1.08-1.822-2.15-1.822s-1.975.766-2.15 1.822l-.686 4.109c-.015.085-.165.07-.164-.014v-7.917h-2v7.917c0 1.149.935 2.083 2.083 2.083 1.022 0 1.886-.732 2.054-1.74l.686-4.109c.029-.174.326-.174.355 0l.686 4.108c.167 1.009 1.031 1.741 2.053 1.741 1.148 0 2.083-.934 2.083-2.083v-7.917h-2z"/><path d="m35 32.917c0 .084-.15.099-.164.013l-.686-4.108c-.175-1.056-1.08-1.822-2.15-1.822s-1.975.766-2.15 1.822l-.686 4.109c-.016.085-.165.07-.164-.014v-7.917h-2v7.917c0 1.149.935 2.083 2.083 2.083 1.022 0 1.886-.732 2.054-1.74l.686-4.109c.029-.174.326-.174.355 0l.686 4.108c.167 1.009 1.031 1.741 2.053 1.741 1.148 0 2.083-.934 2.083-2.083v-7.917h-2z"/><path d="m7 45h2v2h-2z"/><path d="m11 45h2v2h-2z"/><path d="m15 45h2v2h-2z"/><path d="m58 11h-13.363c-1.36-5.724-6.503-10-12.637-10s-11.277 4.276-12.637 10h-13.363c-2.757 0-5 2.243-5 5v30c0 2.757 2.243 5 5 5h17.962c-.168 1.595-.997 3.041-2.296 4h-4.666c-1.654 0-3 1.346-3 3v2c0 1.654 1.346 3 3 3h30c1.654 0 3-1.346 3-3v-2c0-1.654-1.346-3-3-3h-4.666c-1.299-.959-2.128-2.405-2.296-4h17.962c2.757 0 5-2.243 5-5v-30c0-2.757-2.243-5-5-5zm0 2c1.654 0 3 1.346 3 3v20.32l-2-.333v-18.987c0-1.103-.897-2-2-2h-12.046c.026-.332.046-.665.046-1 0-.338-.025-.669-.051-1zm-26-10c1.075 0 2.22 1.527 3.009 4h-6.019c.79-2.473 1.935-4 3.01-4zm3.519 6c.244 1.209.408 2.553.46 4h-7.958c.052-1.447.217-2.791.46-4zm7.43 4h-4.971c-.046-1.419-.184-2.763-.409-4h4.216c.627 1.221 1.035 2.57 1.164 4zm14.051 22.653-4-.667v-10.986c0-1.654-1.346-3-3-3h-7.071c.793-1.233 1.365-2.584 1.704-4h12.367zm-10-10.653v7.917c0 .084-.15.099-.164.013l-.686-4.108c-.175-1.056-1.08-1.822-2.15-1.822s-1.975.766-2.15 1.822l-.686 4.109c-.016.086-.164.07-.164-.014v-7.917h-2v7.917c0 1.149.935 2.083 2.083 2.083 1.022 0 1.886-.732 2.054-1.74l.686-4.109c.029-.174.326-.174.355 0l.686 4.108c.11.663.523 1.2 1.082 1.495l.373 2.246h-32.319c-.552 0-1-.449-1-1v-12c0-.551.448-1 1-1h36c.552 0 1 .449 1 1v10.653l-2.486-.414c.299-.361.486-.817.486-1.322v-7.917zm-20.981-10c.073 2.145.382 4.206.891 6h-3.365c-1.424-1.717-2.297-3.802-2.499-6zm2.977 6c-.558-1.736-.897-3.813-.977-6h7.962c-.079 2.187-.419 4.264-.977 6zm11.458 0h-3.364c.509-1.794.818-3.855.891-6h4.973c-.202 2.198-1.076 4.283-2.5 6zm-14.432-8h-4.971c.13-1.43.537-2.779 1.164-4h4.216c-.225 1.237-.364 2.581-.409 4zm-4.951 8h-7.071c-1.654 0-3 1.346-3 3v12c0 1.654 1.346 3 3 3h32.653l.333 2h-39.986v-24h12.367c.338 1.416.911 2.767 1.704 4zm35.848 16.667-2.333 2.333 3 3-2.586 2.586-3-3-2.333 2.333-1.45-8.703zm-16.44-30.667h-3.373c-.368-1.295-.837-2.422-1.391-3.341 1.873.676 3.517 1.834 4.764 3.341zm-12.193-3.341c-.554.919-1.023 2.046-1.391 3.341h-3.373c1.246-1.507 2.89-2.665 4.764-3.341zm-25.286 42.341v-30c0-1.654 1.346-3 3-3h13.051c-.026.331-.051.662-.051 1 0 .335.02.668.046 1h-12.046c-1.103 0-2 .897-2 2v24c0 1.103.897 2 2 2h40.319l1 6h-42.319c-1.654 0-3-1.346-3-3zm45 12v2c0 .551-.448 1-1 1h-30c-.552 0-1-.449-1-1v-2c0-.551.448-1 1-1h30c.552 0 1 .449 1 1zm-8.47-3h-15.06c.858-1.155 1.378-2.536 1.492-4h12.075c.115 1.464.635 2.845 1.493 4zm18.47-6h-9.586l3.586-3.586 3 3 5.414-5.414-3-3 3.586-3.586v9.586c0 1.654-1.346 3-3 3z"/></g></g></svg>